<?xml version="1.0" encoding="UTF-8"?> <svg xmlns="http://www.w3.org/2000/svg" width="117" height="49" viewBox="0 0 117 49" fill="none"><path d="M6.94308 42.1681C6.45108 42.1681 6.04308 42.4552 6.04308 42.8872C6.04308 43.4023 6.48985 43.5537 6.98093 43.7724C7.7 44.09 8.49477 44.4001 8.49477 45.422C8.49477 46.3146 7.78308 46.9054 6.7917 46.9054C5.83816 46.9054 5.20954 46.3607 5.05908 46.201C5.22524 46.0275 5.39231 45.853 5.55108 45.6786C5.63416 45.7543 6.10308 46.1632 6.7917 46.1632C7.30677 46.1632 7.66216 45.8604 7.66216 45.421C7.66216 44.869 7.13231 44.6715 6.67816 44.4675C5.89077 44.1343 5.20954 43.8546 5.20954 42.8854C5.20954 41.9854 5.98954 41.425 6.95047 41.425C7.74524 41.425 8.28247 41.8414 8.40339 41.9697C8.24462 42.1515 8.07754 42.3334 7.91877 42.5143C7.85139 42.4487 7.51077 42.1681 6.94308 42.1681Z" fill="#E5E5E5"></path><path d="M17.9258 46.9054C16.3511 46.9054 15.1714 45.7479 15.1714 44.1657C15.1714 42.5836 16.352 41.426 17.9258 41.426C19.5071 41.426 20.6877 42.5836 20.6877 44.1657C20.6877 45.7479 19.5071 46.9054 17.9258 46.9054ZM17.9258 42.1682C16.7978 42.1682 16.0031 43.0156 16.0031 44.1657C16.0031 45.3159 16.8357 46.1633 17.9332 46.1633C19.0603 46.1633 19.8551 45.3159 19.8551 44.1657C19.8551 43.0156 19.0225 42.1682 17.9258 42.1682Z" fill="#E5E5E5"></path><path d="M28.5439 43.7115H30.7307V44.438H28.5439V46.8149H27.7261V41.5173H30.9199V42.2438H28.543L28.5439 43.7115Z" fill="#E5E5E5"></path><path d="M37.415 41.5173H41.5014V42.2438H39.8667V46.8149H39.0488V42.2438H37.4141V41.5173H37.415Z" fill="#E5E5E5"></path><path d="M56.1553 46.8149V41.5173H56.9731V46.0884H59.1682V46.8149H56.1553Z" fill="#E5E5E5"></path><path d="M66.8877 46.8149H66.0698V41.5173H66.8877V46.8149Z" fill="#E5E5E5"></path><path d="M73.6841 41.5173H74.5472L76.1367 45.9287H76.1515L77.7484 41.5173H78.6105L76.6278 46.8149H75.6668L73.6841 41.5173Z" fill="#E5E5E5"></path><path d="M86.2251 46.8149H85.4072V41.5173H86.2251V46.8149Z" fill="#E5E5E5"></path><path d="M93.6274 46.8149V41.5173H94.6041L97.4038 45.7404H97.4185V41.5173H98.2364V46.8149H97.2598L94.4601 42.5992H94.4453V46.8149H93.6274Z" fill="#E5E5E5"></path><path d="M109.439 42.6602C109.121 42.3574 108.659 42.1682 108.038 42.1682C106.933 42.1682 106.108 43.0156 106.108 44.1657C106.108 45.3159 106.919 46.1633 108.038 46.1633C108.439 46.1633 108.818 46.1254 109.196 46.0276V44.1731H110.014V46.5796C109.385 46.7993 108.719 46.9054 108.038 46.9054C106.434 46.9054 105.276 45.7479 105.276 44.1657C105.276 42.5836 106.464 41.426 108.038 41.426C108.878 41.426 109.507 41.6909 109.953 42.122L109.439 42.6602Z" fill="#E5E5E5"></path><path d="M21.3276 13.082H13.1528V14.498H21.3276V13.082Z" fill="#E5E5E5"></path><path d="M79.2773 10.2767C81.8324 10.2767 83.2982 8.91613 83.2982 6.54474C83.2982 4.17336 81.8333 2.81274 79.2773 2.81274C76.7222 2.81274 75.2563 4.17336 75.2563 6.54474C75.2563 8.91613 76.7213 10.2767 79.2773 10.2767Z" fill="#E5E5E5"></path><path d="M83.4478 13.1235H72.7373V14.4574H75.3893V35.0974H72.7373V36.4312H86.0527V35.0974H83.4478V13.1235Z" fill="#E5E5E5"></path><path d="M104.191 20.7029L99.6453 20.0401C95.7684 19.4512 94.6478 18.8355 94.6478 17.2949C94.6478 15.6998 96.4847 13.9838 100.516 13.9838C104.672 13.9838 107.666 15.4755 108.525 17.9733L108.571 18.1035H109.916L109.841 17.8552C108.704 14.0521 104.278 12.697 100.516 12.697C95.5413 12.697 90.1875 15.2918 90.1875 20.9881C90.1875 24.9269 92.5857 27.2696 97.3146 27.9518L101.908 28.6146C106.018 29.2238 106.573 30.5115 106.573 31.6903C106.573 33.0324 105.287 35.5699 100.421 35.5699C96.0417 35.5699 93.2152 34.1392 92.461 31.5416L92.4204 31.4023H91.0727L91.142 31.6487C92.1112 35.0863 95.3198 36.9038 100.421 36.9038C106.66 36.9038 111.365 33.0333 111.365 27.9019C111.365 23.8967 108.884 21.4063 104.191 20.7029Z" fill="#E5E5E5"></path><path d="M68.2136 32.2191C67.8601 34.1197 66.5068 35.2099 64.501 35.2099C62.3567 35.2099 61.3136 33.9351 61.3136 31.3126V2.86523H50.5459V4.25723H53.1979V29.3234C53.1979 34.6191 56.1582 36.9812 62.797 36.9812C66.9527 36.9812 68.9871 35.5818 69.5982 32.3003L69.6471 32.0372H68.2468L68.2136 32.2191Z" fill="#E5E5E5"></path><path d="M34.9511 12.6675C27.0809 12.6675 22.7471 16.9847 22.7471 24.8244C22.7471 33.2318 27.1825 36.9813 37.1295 36.9813C41.7052 36.9813 45.0532 35.1583 45.8683 32.2247L45.9468 31.9422H44.54L44.4938 32.1019C44.0295 33.6887 41.9212 35.5413 37.5089 35.5413C33.4723 35.5413 31.3381 32.5072 31.3381 26.7656V24.7146H46.7295V23.1186C46.7295 15.8918 43.0963 12.6675 34.9511 12.6675ZM38.1855 23.3235H31.3372V21.1783C31.3372 16.5527 32.5871 14.1075 34.9511 14.1075C36.6311 14.1075 38.1855 14.9641 38.1855 21.1783V23.3235Z" fill="#E5E5E5"></path><path d="M13.1528 14.498H5.03622V35.0679H2.3833V36.4599H16.2784V35.0679H13.1528V14.498Z" fill="#E5E5E5"></path><path d="M22.9521 7.02473C22.3734 3.9195 19.894 2.34473 15.5823 2.34473C8.48567 2.34473 5.03613 5.09734 5.03613 10.7595V13.082H13.1527V8.58104C13.1527 5.35119 14.3186 3.97303 17.05 3.97303C19.45 3.97303 21.1807 5.17488 21.5675 7.10873L21.6035 7.2878H23.0011L22.9521 7.02473Z" fill="#E5E5E5"></path></svg> 