<?xml version="1.0" encoding="UTF-8"?> <svg xmlns="http://www.w3.org/2000/svg" width="67" height="73" viewBox="0 0 67 73" fill="none"><g clip-path="url(#clip0_347_2602)"><path d="M0 0.5625H66.1622V72.5625H0V0.5625ZM53.5756 7.38188C53.9222 8.06382 54.5838 8.47616 55.0879 9.03123C54.6316 9.06029 54.1742 9.06558 53.7173 9.04708C53.6754 9.54812 53.6649 10.0513 53.6858 10.5537C56.6317 10.5537 59.5617 10.5695 62.5075 10.5537V9.0788C60.7589 8.98365 59.0103 9.11052 57.2618 9.01536C56.7472 8.77485 56.2611 8.47694 55.8125 8.12726C55.466 7.8418 55.0721 7.50876 54.9776 7.04884C55.0319 6.78672 55.1277 6.53506 55.2612 6.30347C54.8515 6.08145 54.4893 5.81184 54.0482 5.63739C53.5441 6.03387 53.2605 6.77924 53.5756 7.38188ZM54.3632 14.3757C52.9455 16.0409 53.4496 18.9431 55.2927 20.085C56.6631 20.9572 58.4117 21.0523 59.9398 20.64C61.4363 20.2436 62.665 18.9431 62.8383 17.373C63.0589 15.9934 62.602 14.5819 61.7829 13.4876C61.4048 13.6937 61.0109 13.8999 60.6328 14.0902C60.948 14.6453 61.326 15.1687 61.452 15.8031C61.6253 16.7545 61.3733 17.8171 60.6328 18.4673C59.9398 19.07 58.9946 19.2762 58.0967 19.292C58.0809 17.2779 58.1125 15.248 58.0967 13.218C56.7892 13.1388 55.2769 13.2973 54.3632 14.3757ZM53.9852 23.1934C53.3708 23.8912 53.355 24.9219 53.5441 25.7942C53.7962 26.9044 54.6626 27.6973 55.4502 28.4427C54.8673 28.4427 54.2687 28.4268 53.6858 28.4427C53.6702 28.9343 53.6702 29.4418 53.6858 29.9334C56.6317 29.9334 59.5775 29.9493 62.5075 29.9176V28.4585C60.8377 28.4109 59.1678 28.4585 57.498 28.4427C57.2933 28.4427 57.0727 28.4268 56.931 28.2523C56.2536 27.6021 55.5604 26.952 55.0879 26.1273C54.8201 25.6356 54.6311 24.9854 54.9461 24.462C55.2139 24.0338 55.781 24.0655 56.2221 24.0338C58.3172 24.018 60.4124 24.0497 62.5075 24.018V22.559C60.4753 22.4797 58.4275 22.559 56.3954 22.5273C55.5604 22.5431 54.5995 22.5273 53.9852 23.1934ZM54.0324 31.4717C53.6702 31.8841 53.2921 32.4233 53.4811 33.0101C53.7489 33.8665 54.568 34.3423 55.1667 34.9448H53.6858C53.6702 35.4365 53.6702 35.944 53.6858 36.4356C56.6317 36.4356 59.5617 36.4515 62.4917 36.4198V34.9607C60.7432 34.8973 58.9946 34.9924 57.246 34.8973C56.4584 34.485 55.6393 33.9934 55.1036 33.2638C54.8201 32.9149 55.1194 32.5026 55.2612 32.1695C54.8515 31.9475 54.442 31.7096 54.0324 31.4717ZM56.931 38.8937C54.7255 39.4171 53.0557 41.796 53.6544 44.0638C54.2372 46.633 57.2303 48.1238 59.6562 47.2832C61.8143 46.6964 63.4054 44.27 62.7438 42.0497C62.1136 39.6074 59.2939 38.196 56.931 38.8937ZM60.6644 48.4885C61.1527 49.218 61.4993 50.0744 61.3733 50.9784C61.3407 51.557 61.1331 52.1118 60.7783 52.5681C60.4235 53.0245 59.9385 53.3608 59.3884 53.5316C58.2069 53.8805 56.8364 53.7537 55.844 52.9766C54.5523 51.9934 54.4893 49.9475 55.5447 48.7581C55.1509 48.4568 54.7571 48.1713 54.3474 47.9017C53.103 49.5352 53.1503 52.0251 54.3947 53.6427C56.0645 55.752 59.5932 55.9581 61.515 54.0867C63.1533 52.4216 63.1533 49.551 61.7986 47.7114C61.4206 47.9652 61.0425 48.2348 60.6644 48.4885ZM52.4099 58.0198C52.5989 58.2577 52.8982 58.3528 53.1503 58.4797C53.103 58.7969 53.103 59.1141 52.8982 59.3678C52.7407 59.6692 52.3312 59.9387 52.4571 60.3193C52.6147 60.6682 53.0557 60.6206 53.2605 60.3669C53.6179 59.9856 53.8922 59.5332 54.0659 59.0389C54.2394 58.5446 54.3085 58.0192 54.2687 57.4964C54.2614 57.3405 54.2193 57.1884 54.1455 57.0511C54.0717 56.9139 53.9682 56.7952 53.8426 56.7037C53.717 56.6123 53.5725 56.5506 53.4199 56.523C53.2673 56.4955 53.1105 56.503 52.9612 56.5448C52.3469 56.7034 52.1421 57.4964 52.4099 58.0198ZM10.0031 59.1616C9.18394 59.5106 8.63258 60.2241 7.97096 60.7792C7.93946 60.2241 7.95521 59.6533 7.97096 59.0982C7.46688 59.0824 6.96278 59.0824 6.45869 59.0824V67.9634C6.96278 67.9634 7.46688 67.9634 7.97096 67.9475C7.97096 66.1555 7.92371 64.3792 7.97096 62.5872C8.509 61.8894 9.14591 61.2748 9.86127 60.7634C10.4284 60.3669 11.1688 59.9862 11.8461 60.3351C12.3188 60.573 12.3188 61.1598 12.3345 61.6198C12.3345 63.729 12.3345 65.8541 12.3188 67.9634C12.8228 67.9792 13.3269 67.9792 13.831 67.9634C13.8468 66.1713 13.7996 64.3951 13.8468 62.6031C14.4216 61.847 15.113 61.1883 15.8947 60.6523C16.4303 60.3034 17.1864 59.9862 17.785 60.3669C18.2104 60.6206 18.1946 61.1757 18.1946 61.6198C18.1788 63.729 18.2104 65.8383 18.1788 67.9475C18.6829 67.9634 19.187 67.9634 19.6911 67.9634V61.2867C19.6911 60.5413 19.5178 59.7167 18.8877 59.2568C18.1001 58.7176 17.0604 58.7493 16.194 59.0348C15.2173 59.3361 14.5241 60.129 13.8468 60.8427C13.6735 60.24 13.5317 59.5423 12.9647 59.1934C12.0667 58.67 10.9325 58.7652 10.0031 59.1616ZM34.0735 60.5572C34.0735 60.0655 34.0577 59.574 34.0577 59.0824H32.577C32.5612 62.048 32.5612 65.0136 32.577 67.9634H34.0577C34.0735 66.3299 34.0577 64.6805 34.0577 63.0471C34.0262 62.5396 34.3886 62.1431 34.6249 61.7466C34.9871 61.2391 35.3495 60.6365 35.9481 60.3986C36.2474 60.3669 36.5309 60.573 36.8145 60.6523C37.035 60.24 37.2714 59.8436 37.4919 59.4313C37.0823 59.1299 36.6255 58.7334 36.0741 58.8603C35.1762 59.0823 34.6878 59.9545 34.0735 60.5572ZM57.8761 59.0189C57.1515 59.2251 56.4269 59.685 56.1118 60.3986C55.781 61.1757 55.844 62.1907 56.5056 62.7775C57.4824 63.6497 58.8055 63.9193 59.9083 64.5854C60.3493 64.855 60.7747 65.3308 60.7117 65.9017C60.6172 66.5361 59.9712 66.885 59.3884 66.9326C58.3645 67.0119 57.4035 66.5678 56.5214 66.1079C56.2851 66.5202 56.033 66.9326 55.9228 67.4083C57.4508 68.1378 59.2782 68.566 60.9007 67.9158C62.5705 67.2815 62.8225 64.5854 61.3418 63.618C60.3651 62.9361 59.1836 62.6665 58.1596 62.0638C57.8288 61.8735 57.4824 61.5722 57.5296 61.144C57.5296 60.573 58.0967 60.2241 58.6008 60.1448C59.5932 59.9546 60.5699 60.3352 61.4206 60.8268C61.692 60.433 61.9342 60.0195 62.1451 59.5899C60.8467 58.8578 59.3193 58.6536 57.8761 59.0189ZM39.4453 59.0982C39.461 62.048 39.461 64.9977 39.4453 67.9475C39.9493 67.9634 40.4534 67.9634 40.9575 67.9634V59.0824C40.4534 59.0824 39.9493 59.0824 39.4453 59.0982ZM24.795 59.4947C24.0704 59.7009 23.2985 60.1924 23.1568 61.0012C23.1095 61.2709 23.0779 61.6673 23.33 61.8418C23.7869 61.7942 24.2122 61.6515 24.669 61.5722C24.7478 61.255 24.7006 60.8268 25.0314 60.6523C25.5197 60.3986 26.1025 60.4462 26.6224 60.4937C27.0792 60.5572 27.6148 60.8109 27.6621 61.3343C27.6988 61.9309 27.7041 62.5292 27.6779 63.1264C26.4964 63.4119 25.2676 63.618 24.1177 64.0144C22.7157 64.5219 22.3061 66.4092 23.015 67.6303C23.2002 67.9249 23.4527 68.1707 23.7514 68.3472C24.05 68.5238 24.3863 68.6259 24.732 68.6453C25.8663 68.7722 26.969 68.2805 27.8039 67.5351C27.9141 67.7889 27.9772 68.0902 28.182 68.2964C28.5757 68.6136 29.1113 68.6453 29.5997 68.677C29.7099 68.2647 29.836 67.8523 29.9147 67.44C29.647 67.2973 29.1586 67.218 29.2216 66.8216C29.2058 65.0295 29.2531 63.2533 29.2216 61.4612C29.2196 61.0667 29.102 60.6817 28.8834 60.3544C28.6648 60.0271 28.355 59.7722 27.9929 59.6216C26.9847 59.1934 25.8348 59.2092 24.795 59.4947ZM46.1087 59.5264C44.7697 59.9704 43.793 61.2391 43.5253 62.6031C43.2102 64.2048 43.3835 66.0127 44.4389 67.3131C45.3211 68.4233 46.8334 68.8515 48.2039 68.6453C49.1175 68.5502 49.9367 68.0744 50.7085 67.5986C50.5196 67.2022 50.3305 66.8057 50.11 66.4092C49.5743 66.7264 49.0702 67.0753 48.4559 67.218C47.621 67.3924 46.6916 67.2497 46.03 66.6788C45.258 65.9969 44.9115 64.8867 45.006 63.8717C47.0067 63.8876 49.0073 63.8876 51.0079 63.8559C51.0393 62.6031 50.9291 61.2233 50.0155 60.2717C49.023 59.2251 47.4162 59.0982 46.1087 59.5264Z" fill="#E5E5E5"></path><path d="M53.5757 7.38194C53.2606 6.7793 53.5441 6.03393 54.0482 5.63745C54.4894 5.81191 54.8516 6.08151 55.2612 6.30353C55.1277 6.53512 55.032 6.78678 54.9777 7.0489C55.0722 7.50882 55.466 7.84186 55.8126 8.12732C56.2612 8.47701 56.7473 8.77491 57.2619 9.01543C59.0104 9.11058 60.759 8.98371 62.5075 9.07886V10.5538C59.5618 10.5696 56.6318 10.5538 53.686 10.5538C53.665 10.0514 53.6755 9.54818 53.7174 9.04714C54.1742 9.06564 54.6317 9.06035 55.0879 9.03129C54.5996 8.47622 53.9222 8.06388 53.5757 7.38194Z" fill="#1C1C1C"></path><path d="M54.3634 14.3759C55.277 13.2974 56.7893 13.1388 58.0967 13.2181C58.1125 15.248 58.081 17.2781 58.0967 19.2921C58.9947 19.2762 59.9398 19.0701 60.633 18.4674C61.3733 17.8173 61.6254 16.7547 61.4521 15.8031C61.3261 15.1687 60.948 14.6454 60.633 14.0904C61.011 13.9001 61.4049 13.6939 61.783 13.4877C62.6021 14.582 63.0589 15.9934 62.8383 17.3732C62.665 18.9432 61.4364 20.2437 59.9398 20.6402C58.4118 21.0525 56.6633 20.9574 55.2927 20.0851C53.4496 18.9432 52.9455 16.041 54.3634 14.3759ZM55.403 15.4225C54.8202 16.0093 54.8202 16.9767 55.1037 17.7221C55.4187 18.4991 56.1907 18.9749 56.9783 19.1494C56.9941 17.7063 56.9941 16.2948 56.9783 14.8516C56.4269 14.9309 55.8126 14.9943 55.403 15.4225Z" fill="#1C1C1C"></path><path d="M55.4029 15.4225C55.8125 14.9943 56.4269 14.9309 56.9782 14.8516C56.9939 16.2948 56.9939 17.7221 56.9782 19.1652C56.1906 18.9908 55.4187 18.4991 55.1037 17.7221C54.82 16.9767 54.82 16.0093 55.4029 15.4225Z" fill="#E5E5E5"></path><path d="M53.985 23.1932C54.5993 22.5271 55.5603 22.5429 56.3952 22.5271C58.4273 22.5588 60.4751 22.4795 62.5073 22.5588V24.0178C60.4122 24.0496 58.317 24.0178 56.2219 24.0337C55.7808 24.0654 55.2137 24.0337 54.9459 24.4618C54.6309 24.9852 54.8199 25.6354 55.0877 26.1271C55.5603 26.9517 56.2534 27.6178 56.9308 28.2521C57.0725 28.4266 57.2931 28.4424 57.4978 28.4424C59.1676 28.4583 60.8375 28.4107 62.5073 28.4583V29.9174C59.5773 29.9491 56.6315 29.9332 53.6856 29.9332C53.67 29.4416 53.67 28.9341 53.6856 28.4424C54.2685 28.4266 54.8671 28.4424 55.45 28.4424C54.6624 27.6971 53.796 26.9042 53.5439 25.794C53.3548 24.9376 53.3706 23.891 53.985 23.1932Z" fill="#1C1C1C"></path><path d="M54.0324 31.4719C54.442 31.7098 54.8516 31.9477 55.2611 32.1696C55.1193 32.5027 54.8201 32.915 55.1036 33.2639C55.6392 33.9935 56.4583 34.4851 57.246 34.8975C58.9946 34.9926 60.7589 34.8975 62.5074 34.9609V36.4199C59.5774 36.4516 56.6316 36.4357 53.6859 36.4357C53.6701 35.9441 53.6701 35.4367 53.6859 34.945C54.1742 34.945 54.6783 34.9292 55.1666 34.9292C54.568 34.3265 53.7488 33.8666 53.481 33.0102C53.292 32.4234 53.6701 31.8843 54.0324 31.4719Z" fill="#1C1C1C"></path><path d="M56.9309 38.8939C59.2938 38.1961 62.1136 39.6076 62.7437 42.0499C63.4053 44.2702 61.8143 46.6966 59.6561 47.2834C57.2302 48.1239 54.2371 46.6332 53.67 44.064C53.0714 41.7961 54.7255 39.4173 56.9309 38.8939ZM57.3877 40.4482C55.9385 40.7019 54.5364 42.1133 54.9618 43.6834C55.4658 45.5389 57.7973 46.2684 59.4671 45.6657C60.3808 45.3644 61.2315 44.6507 61.4677 43.6834C61.6883 42.8587 61.3732 41.9389 60.7746 41.3521C59.8925 40.4957 58.5692 40.2103 57.3877 40.4482Z" fill="#1C1C1C"></path><path d="M57.4036 40.448C58.5851 40.2101 59.8926 40.4956 60.7748 41.352C61.3733 41.9388 61.6884 42.8586 61.4679 43.6832C61.2316 44.6506 60.3809 45.3643 59.4673 45.6656C57.7975 46.2683 55.466 45.5388 54.9619 43.6832C54.5366 42.1132 55.9544 40.7017 57.4036 40.448Z" fill="#E5E5E5"></path><path d="M60.6644 48.4885C61.0425 48.2348 61.4206 47.9652 61.7987 47.7114C63.1534 49.551 63.1376 52.4216 61.5151 54.0867C59.5933 55.9581 56.0646 55.752 54.3948 53.6427C53.1504 52.0251 53.1031 49.5352 54.3476 47.9017C54.7571 48.1713 55.151 48.4568 55.5447 48.7582C54.4894 49.9475 54.5523 51.9934 55.8441 52.9767C56.8366 53.7537 58.207 53.8806 59.3885 53.5317C59.9386 53.3608 60.4235 53.0245 60.7784 52.5682C61.1331 52.1118 61.3407 51.557 61.3733 50.9784C61.4993 50.0744 61.1528 49.2181 60.6644 48.4885Z" fill="#1C1C1C"></path><path d="M52.4099 58.02C52.1421 57.4967 52.3626 56.7038 52.9613 56.5452C53.1106 56.5033 53.2674 56.4959 53.4199 56.5233C53.5725 56.5508 53.717 56.6126 53.8426 56.704C53.9682 56.7954 54.0717 56.9141 54.1455 57.0514C54.2193 57.1886 54.2614 57.3409 54.2687 57.4968C54.3085 58.0194 54.2395 58.5449 54.0659 59.0392C53.8922 59.5335 53.6179 59.9858 53.2606 60.3672C53.0557 60.621 52.6147 60.6686 52.4572 60.3197C52.3312 59.939 52.7407 59.6694 52.8982 59.3681C53.103 59.1143 53.103 58.7971 53.1503 58.48C52.8982 58.3372 52.5989 58.2579 52.4099 58.02Z" fill="#1C1C1C"></path><path d="M10.0029 59.1615C10.9323 58.765 12.0665 58.6699 12.9645 59.1932C13.5315 59.5422 13.6734 60.24 13.8466 60.8426C14.5239 60.129 15.2171 59.336 16.1938 59.0346C17.0602 58.7492 18.0999 58.7175 18.8875 59.2567C19.5176 59.7166 19.6909 60.5413 19.6909 61.2867V67.9633C19.1868 67.9633 18.6827 67.9633 18.1786 67.9475C18.2101 65.8382 18.1786 63.729 18.1944 61.6197C18.1944 61.1757 18.2101 60.6206 17.7849 60.3668C17.1862 59.9862 16.4301 60.2875 15.8945 60.6365C15.1124 61.1782 14.421 61.842 13.8466 62.6029C13.7994 64.3951 13.8466 66.1712 13.8309 67.9633C13.3268 67.9792 12.8227 67.9792 12.3186 67.9633C12.3344 65.854 12.3344 63.729 12.3344 61.6197C12.3186 61.1598 12.3186 60.573 11.846 60.3351C11.1686 59.9862 10.4282 60.3668 9.86116 60.7633C9.14572 61.2748 8.5088 61.8893 7.97078 62.5871C7.92352 64.3792 7.97078 66.1554 7.97078 67.9475C7.46668 67.9633 6.96259 67.9633 6.4585 67.9633V59.0822C6.96259 59.0822 7.46668 59.0822 7.97078 59.0981C7.95503 59.6532 7.93927 60.2241 7.97078 60.7792C8.6324 60.2241 9.18374 59.5104 10.0029 59.1615Z" fill="#1C1C1C"></path><path d="M34.0733 60.5571C34.6877 59.9545 35.1761 59.0823 36.0739 58.8602C36.6253 58.7334 37.0821 59.1299 37.4917 59.4312C37.2712 59.8434 37.0348 60.2399 36.8144 60.6523C36.5307 60.573 36.2472 60.3668 35.9479 60.3985C35.3493 60.6364 34.987 61.2391 34.6247 61.7466C34.3883 62.1431 34.0261 62.5395 34.0575 63.047C34.0575 64.6805 34.0733 66.3299 34.0575 67.9633H32.5768C32.561 65.0135 32.561 62.0479 32.5768 59.0823H34.0575C34.0575 59.5739 34.0733 60.0655 34.0733 60.5571Z" fill="#1C1C1C"></path><path d="M57.8761 59.0187C59.3194 58.6533 60.8468 58.8577 62.1452 59.5896C61.9342 60.0194 61.692 60.4328 61.4205 60.8267C60.5698 60.335 59.5932 59.9544 58.6007 60.1447C58.0966 60.224 57.5295 60.5729 57.5295 61.1439C57.4823 61.572 57.8289 61.8733 58.1597 62.0636C59.1836 62.6663 60.365 62.9359 61.3417 63.6178C62.8225 64.5853 62.5705 67.2813 60.9007 67.9157C59.2781 68.5658 57.4508 68.1377 55.9227 67.4082C56.033 66.9324 56.2851 66.52 56.5214 66.1077C57.4035 66.5676 58.3644 67.0117 59.3884 66.9324C59.9713 66.8848 60.6329 66.5359 60.7116 65.9015C60.7747 65.3306 60.3493 64.8549 59.9082 64.5853C58.8056 63.9192 57.4823 63.6496 56.5056 62.7773C55.844 62.1905 55.781 61.1755 56.1118 60.3985C56.4268 59.6848 57.1515 59.2249 57.8761 59.0187Z" fill="#1C1C1C"></path><path d="M39.4453 59.0984C39.9493 59.0825 40.4534 59.0825 40.9575 59.0825V67.9636C40.4534 67.9636 39.9493 67.9636 39.4453 67.9478C39.461 64.9979 39.461 62.0481 39.4453 59.0984Z" fill="#1C1C1C"></path><path d="M24.7949 59.4944C25.8346 59.209 26.9846 59.1773 27.9928 59.6055C28.3556 59.7595 28.6655 60.0175 28.8839 60.3474C29.1024 60.6773 29.2198 61.0644 29.2216 61.4609C29.253 63.253 29.2058 65.0292 29.2216 66.8213C29.1585 67.2177 29.6468 67.297 29.9146 67.4397C29.8359 67.8521 29.7099 68.2644 29.5996 68.6768C29.1112 68.6451 28.5756 68.6133 28.1818 68.2961C27.977 68.09 27.914 67.7887 27.8037 67.5349C26.9688 68.2803 25.8662 68.7719 24.732 68.6451C24.3862 68.6257 24.0499 68.5235 23.7513 68.3469C23.4526 68.1704 23.2001 67.9247 23.0149 67.6301C22.306 66.409 22.6998 64.5217 24.1175 64.0142C25.2675 63.6177 26.4963 63.4116 27.6777 63.1262C27.704 62.5289 27.6988 61.9307 27.662 61.334C27.6147 60.8107 27.0791 60.5569 26.6223 60.4935C26.1024 60.4459 25.5196 60.3983 25.0313 60.6521C24.7004 60.8265 24.7634 61.2547 24.6847 61.5719C24.2279 61.6512 23.7867 61.794 23.3299 61.8415C23.0779 61.6671 23.1093 61.2547 23.1566 60.9851C23.2984 60.1763 24.0703 59.7006 24.7949 59.4944ZM24.4326 65.2671C23.9758 65.9015 24.1018 67.0275 24.9524 67.2494C25.9922 67.5032 26.8901 66.742 27.6777 66.1711V64.4265C26.5907 64.6486 25.5038 64.9499 24.4326 65.2671Z" fill="#1C1C1C"></path><path d="M46.1085 59.5262C47.416 59.0979 49.0228 59.2248 50.0152 60.2715C50.9289 61.2231 51.0392 62.6028 51.0076 63.8557C49.0071 63.8874 47.0065 63.8874 45.0058 63.8716C44.9113 64.8866 45.2578 65.9966 46.0298 66.6786C46.6914 67.2495 47.6208 67.3922 48.4557 67.2178C49.07 67.0751 49.5741 66.7262 50.1098 66.409C50.3303 66.8054 50.5193 67.2019 50.7083 67.5984C49.9365 68.0742 49.1173 68.55 48.2036 68.6451C46.8332 68.8513 45.3209 68.4231 44.4387 67.313C43.3833 66.0125 43.21 64.2046 43.5251 62.6028C43.7928 61.239 44.7695 59.9702 46.1085 59.5262ZM46.392 60.9059C45.6832 61.2548 45.3051 62.0002 45.053 62.7138C46.4866 62.7455 47.9359 62.7455 49.3693 62.7297C49.3064 62.1905 49.2276 61.5879 48.818 61.1755C48.2036 60.5412 47.1482 60.557 46.392 60.9059Z" fill="#1C1C1C"></path><path d="M46.3922 60.9062C47.1484 60.5573 48.2038 60.5414 48.8182 61.1758C49.2278 61.588 49.3066 62.1907 49.3695 62.7299C47.936 62.7458 46.4868 62.7458 45.0532 62.7141C45.3053 62.0004 45.6834 61.2551 46.3922 60.9062Z" fill="#E5E5E5"></path><path d="M24.4329 65.2673C25.5042 64.9501 26.5911 64.6488 27.6781 64.4268V66.1712C26.8904 66.7421 25.9925 67.5034 24.9528 67.2496C24.1021 67.0276 23.9761 65.9016 24.4329 65.2673Z" fill="#E5E5E5"></path></g><defs><clipPath id="clip0_347_2602"><rect width="66.1622" height="72" fill="white" transform="translate(0 0.5625)"></rect></clipPath></defs></svg> 