<?xml version="1.0" encoding="UTF-8"?> <svg xmlns="http://www.w3.org/2000/svg" width="164" height="28" viewBox="0 0 164 28" fill="none"><g clip-path="url(#clip0_347_2632)"><path d="M95.2783 14.1512C95.2783 11.0742 92.7456 8.57779 89.6214 8.57779C86.4973 8.57779 83.9645 11.0742 83.9645 14.1512C83.9645 17.2282 86.4973 19.7247 89.6214 19.7247C92.7456 19.7247 95.2783 17.2282 95.2783 14.1512ZM77.161 8.6431H59.6243C59.1018 8.6431 58.6809 8.95153 58.6809 9.3289C58.6809 9.70627 59.1018 10.0147 59.6243 10.0147H68.0679C73.4853 10.0147 75.9346 14.6266 75.9346 14.6266C75.8148 11.2411 77.161 8.63947 77.161 8.63947M67.1825 18.6978C67.1825 18.3204 66.758 18.012 66.2391 18.012H57.8862C57.8862 18.012 55.4986 18.2225 52.9768 16.3138C50.4549 14.4016 50.0594 12.551 50.0594 12.551V18.0156H33.7636V19.3872H66.2391C66.758 19.3872 67.1825 19.0824 67.1825 18.7014M33.76 10.0365H49.2104V8.62133H33.76V10.0365ZM127.514 0.801819V27.7292H113.657L110.177 9.88407V27.7292H102.071V19.9714C102.071 19.9714 98.798 27.7292 89.4074 27.7292C80.0167 27.7292 76.9252 19.848 76.9252 19.848C76.9252 19.848 76.3482 27.7292 66.6963 27.7292H25.4216V10.4755L21.9709 27.7292H12.3988L8.88997 10.4755V27.7292H0.664062V0.729248H13.832L17.1594 14.0242L19.7248 0.801819H50.0159V5.72213C50.0159 5.72213 51.3693 3.35994 52.8425 2.39475C54.3193 1.43319 55.1176 0.79819 59.6823 0.79819H90.7681C94.1571 0.79819 98.8633 2.63423 102.075 8.24034V0.801819H115.994L119.444 18.1245V0.801819H127.518H127.514ZM145.073 0.801819C140.494 0.801819 136.785 4.62268 136.785 9.33978C136.785 14.0569 140.49 17.8705 145.062 17.8741L147.841 17.856H153.306C153.829 17.856 154.249 18.1644 154.249 18.5418C154.249 18.9191 153.825 19.2276 153.306 19.2276L137.83 19.2385V27.722H155.432C160.008 27.722 163.72 23.7669 163.72 18.8865C163.72 14.0061 160.015 10.051 155.44 10.051L147.453 10.022H146.84C146.317 10.022 145.897 9.71352 145.897 9.33615C145.897 8.95879 146.317 8.64673 146.84 8.64673H147.388L161.858 8.57416V0.801819H145.076H145.073ZM129.02 12.2644V0.801819H139.891L129.02 12.2644Z" fill="#E5E5E5"></path></g><defs><clipPath id="clip0_347_2632"><rect width="163.056" height="27" fill="white" transform="translate(0.664062 0.729248)"></rect></clipPath></defs></svg> 