<?xml version="1.0" encoding="UTF-8"?> <svg xmlns="http://www.w3.org/2000/svg" width="91" height="34" viewBox="0 0 91 34" fill="none"><g clip-path="url(#clip0_347_2643)"><path fill-rule="evenodd" clip-rule="evenodd" d="M42.5796 33.5998H46.9159V0.5625H42.5796V33.5998ZM19.264 22.7361L9.97091 0.5625L0.333496 33.5998H4.88664L10.7869 13.3733L19.264 33.5998L27.7411 13.3733L33.6414 33.5998H38.1945L28.5571 0.5625L19.264 22.7361ZM61.523 0.562531L61.8076 0.564932C70.8006 0.716793 78.0442 8.05314 78.0442 17.0812C78.0442 26.2042 70.6473 33.5998 61.523 33.5998H53.2625V0.562531H61.523ZM90.2585 0.562594V21.2108L90.2558 21.47C90.1179 28.1927 84.6243 33.5999 77.8676 33.5999C76.7182 33.5999 75.6059 33.4427 74.5497 33.1499C75.9785 32.0183 77.2533 30.7067 78.3383 29.2502C82.5676 29.0064 85.9222 25.5006 85.9222 21.2108V0.562594H90.2585ZM61.523 4.89815H57.5986V29.2642H61.5244C68.2533 29.2634 73.7079 23.8092 73.7079 17.0812C73.7079 10.3527 68.2525 4.89815 61.523 4.89815Z" fill="#E5E5E5"></path></g><defs><clipPath id="clip0_347_2643"><rect width="89.925" height="33" fill="white" transform="translate(0.333496 0.5625)"></rect></clipPath></defs></svg> 