<?xml version="1.0" encoding="UTF-8"?> <svg xmlns="http://www.w3.org/2000/svg" width="144" height="29" viewBox="0 0 144 29" fill="none"><g clip-path="url(#clip0_347_2656)"><path d="M34.6665 14.696V27.7627H39.8665H45.0665V26.296V24.8294H41.4665H37.8665V13.2294V1.62936H36.2665H34.6665V14.696Z" fill="#E5E5E5"></path><path d="M50.6665 14.696V27.7627H52.2665H53.8665V14.696V1.62936H52.2665H50.6665V14.696Z" fill="#E5E5E5"></path><path d="M59.6264 2.21597C59.7331 2.56263 62.0798 8.7493 64.8264 16.0026C67.5998 23.256 69.8664 29.2293 69.8664 29.3093C69.8664 30.1626 73.1998 21.7093 80.1598 3.28263L80.7731 1.6293H78.9864H77.1998L73.7598 11.0426C71.8664 16.1893 70.2398 20.5093 70.1598 20.616C70.0531 20.7226 68.7464 17.416 67.2264 13.2826C65.7064 9.1493 64.1064 4.8293 63.6798 3.68263L62.8798 1.6293H61.1464C59.4931 1.6293 59.4398 1.65597 59.6264 2.21597Z" fill="#E5E5E5"></path><path d="M86.3999 14.696V27.7627H87.8666H89.3332V14.696V1.62936H87.8666H86.3999V14.696Z" fill="#E5E5E5"></path><path d="M98.1333 3.09608V4.56274H104.933H111.733V3.09608V1.62941H104.933H98.1333V3.09608Z" fill="#E5E5E5"></path><path d="M118.933 14.696V27.7627H120.533H122.133L122.186 21.8694L122.266 15.9494L126.346 21.8694L130.453 27.7627H132.293C133.306 27.7627 134.133 27.6827 134.133 27.5494C134.133 27.4427 132.346 24.856 130.16 21.7627L126.186 16.1627L127.253 15.976C130.533 15.3894 132.746 12.136 132.48 8.3227C132.32 6.21603 131.626 4.74936 130.16 3.41603C128.613 2.0027 127.013 1.62936 122.613 1.62936H118.933V14.696ZM126.933 5.14936C128.533 5.97603 129.333 7.2027 129.333 8.8827C129.333 9.6027 129.2 10.456 129.04 10.776C128.106 12.5894 126.053 13.6294 123.413 13.6294H122.133V9.09603V4.5627H123.946C125.28 4.5627 126.053 4.7227 126.933 5.14936Z" fill="#E5E5E5"></path><path d="M140.533 14.696V27.7627H142.133H143.733V14.696V1.62936H142.133H140.533V14.696Z" fill="#E5E5E5"></path><path d="M98.1333 13.496V14.9626H104.8H111.467V13.496V12.0293H104.8H98.1333V13.496Z" fill="#E5E5E5"></path><path d="M98.1333 26.296V27.7627H104.933H111.733V26.296V24.8294H104.933H98.1333V26.296Z" fill="#E5E5E5"></path><path d="M10.4799 1.46908C8.13327 2.05575 6.1066 3.22908 4.23993 5.06908C1.43993 7.84242 0.266602 10.7224 0.266602 14.7224C0.266602 21.9491 5.4666 27.6024 12.7199 28.2157C18.8799 28.7224 24.6399 24.8824 26.6933 18.9357C27.4933 16.5624 27.4933 12.8291 26.6933 10.4291C24.4266 3.70908 17.3866 -0.18425 10.4799 1.46908ZM18.2933 5.49575C24.7199 8.64242 26.0799 16.9091 21.0133 21.9757C15.9199 27.0691 7.5466 25.5224 4.4266 18.9624C3.67993 17.3891 3.59993 16.9891 3.59993 14.6957C3.59993 12.4024 3.67993 12.0024 4.45327 10.3757C5.43993 8.26908 7.1466 6.45575 9.03993 5.49575C10.9599 4.53575 12.1066 4.29575 14.3733 4.42908C15.9733 4.50908 16.7199 4.72242 18.2933 5.49575Z" fill="#E5E5E5"></path></g><defs><clipPath id="clip0_347_2656"><rect width="144" height="28" fill="white" transform="translate(0 0.5625)"></rect></clipPath></defs></svg> 