<?xml version="1.0" encoding="UTF-8"?> <svg xmlns="http://www.w3.org/2000/svg" width="64" height="64" viewBox="0 0 64 64" fill="none"><rect width="64" height="64" rx="16" fill="#1C1C1C"></rect><path d="M40.0158 50.5C39.0707 50.5 38.1534 50.3347 37.264 50.0041C36.3745 49.6872 35.5753 49.2946 34.8665 48.8263C34.1577 48.3717 33.4558 47.9171 32.7609 47.4625C32.0799 47.0079 31.3225 46.6153 30.4886 46.2847C29.6547 45.9678 28.8069 45.8094 27.9452 45.8094C26.4859 45.8094 25.1725 46.202 24.005 46.9872C22.8515 47.7862 21.9551 48.7505 21.3157 49.8801H20.6069C21.1073 48.7918 21.8717 47.7587 22.9001 46.7806C23.9286 45.8025 25.0961 45.0724 26.4025 44.5903C23.47 43.4882 21.0864 41.5459 19.2518 38.7632C17.4173 35.9805 16.5 32.757 16.5 29.0927C16.5 26.6682 16.9308 24.409 17.7925 22.3151C18.6681 20.2074 19.8217 18.4511 21.2532 17.0459C22.6986 15.6271 24.3594 14.5181 26.2357 13.7191C28.112 12.9064 30.0577 12.5 32.073 12.5C34.0882 12.5 36.0201 12.9064 37.8685 13.7191C39.7309 14.5319 41.35 15.6408 42.726 17.0459C44.1158 18.4373 45.2207 20.1386 46.0407 22.1498C46.8746 24.161 47.2915 26.3032 47.2915 28.5761C47.2915 30.6838 46.9302 32.7019 46.2075 34.6305C45.4987 36.5591 44.5327 38.2328 43.3097 39.6517C42.1005 41.0706 40.6899 42.2691 39.0777 43.2471C37.4794 44.2114 35.7907 44.8658 34.0118 45.2102C34.4287 45.4168 35.0333 45.7474 35.8255 46.202C36.6177 46.6566 37.257 47.0079 37.7434 47.2558C38.2299 47.5176 38.8414 47.7587 39.578 47.9791C40.3285 48.1995 41.0582 48.3097 41.767 48.3097C44.0046 48.3097 45.7002 47.3798 46.8537 45.5201H47.5C46.6939 47.0905 45.6446 48.3097 44.3521 49.1775C43.0595 50.0592 41.6141 50.5 40.0158 50.5ZM32.5942 43.9084C33.6365 43.9084 34.6441 43.75 35.617 43.4331C36.6038 43.1163 37.5489 42.5997 38.4523 41.8834C39.3556 41.167 40.1409 40.2923 40.808 39.2591C41.489 38.2122 42.0241 36.9035 42.4132 35.3331C42.8163 33.7626 43.0178 32.02 43.0178 30.1052C43.0178 27.5154 42.6982 25.1873 42.0588 23.121C41.4195 21.0546 40.5509 19.374 39.4529 18.0791C38.3689 16.7704 37.125 15.7786 35.7213 15.1036C34.3175 14.4148 32.8165 14.0704 31.2182 14.0704C30.426 14.0704 29.6269 14.1668 28.8208 14.3597C28.0286 14.5526 27.2225 14.8556 26.4025 15.2689C25.5825 15.6822 24.8181 16.2539 24.1093 16.984C23.4144 17.7003 22.7889 18.5406 22.233 19.5049C21.6771 20.4554 21.2393 21.6263 20.9196 23.0177C20.6139 24.409 20.461 25.9381 20.461 27.6049C20.461 29.6713 20.6973 31.5999 21.1698 33.3907C21.6562 35.1815 22.3025 36.7106 23.1086 37.978C23.9147 39.2453 24.8389 40.3336 25.8813 41.2428C26.9376 42.152 28.0355 42.827 29.1752 43.2678C30.3148 43.6949 31.4545 43.9084 32.5942 43.9084Z" fill="#7C7C7C"></path></svg> 