<?xml version="1.0" encoding="UTF-8"?> <svg xmlns="http://www.w3.org/2000/svg" width="72" height="42" viewBox="0 0 72 42" fill="none"><rect width="72" height="42" rx="21" fill="#1C1C1C"></rect><path d="M13.8984 30.83V9.8692H15.9426L24.2997 20.9485L32.3261 9.8692H34.2801V30.83H32.1457V13.4325L24.4199 23.9429H23.9389L16.0328 13.4325V30.83H13.8984Z" fill="#E5E5E5"></path><path d="M54.1844 34.4618C53.5481 34.4618 52.9305 34.35 52.3317 34.1263C51.7328 33.9119 51.1947 33.6462 50.7175 33.3293C50.2403 33.0217 49.7677 32.7141 49.2998 32.4065C48.8413 32.099 48.3313 31.8333 47.7699 31.6096C47.2084 31.3952 46.6376 31.288 46.0575 31.288C45.0749 31.288 44.1906 31.5537 43.4046 32.085C42.6279 32.6256 42.0244 33.2781 41.5939 34.0424H41.1167C41.4536 33.306 41.9682 32.6069 42.6607 31.9452C43.3531 31.2834 44.1392 30.7894 45.0188 30.4631C43.0443 29.7175 41.4395 28.4032 40.2043 26.5204C38.9692 24.6375 38.3516 22.4564 38.3516 19.9771C38.3516 18.3366 38.6416 16.808 39.2218 15.3912C39.8113 13.9651 40.588 12.7766 41.5518 11.8259C42.525 10.8659 43.6432 10.1155 44.9065 9.5749C46.1697 9.02497 47.4798 8.75 48.8366 8.75C50.1935 8.75 51.4942 9.02497 52.7387 9.5749C53.9926 10.1248 55.0828 10.8752 56.0092 11.8259C56.9449 12.7673 57.6888 13.9185 58.2409 15.2793C58.8024 16.6402 59.0831 18.0896 59.0831 19.6275C59.0831 21.0536 58.8398 22.4192 58.3532 23.7241C57.876 25.029 57.2256 26.1615 56.4022 27.1216C55.5881 28.0816 54.6383 28.8926 53.5528 29.5543C52.4767 30.2068 51.3398 30.6495 50.142 30.8826C50.4227 31.0224 50.8298 31.2461 51.3632 31.5537C51.8965 31.8613 52.327 32.099 52.6545 32.2667C52.982 32.4438 53.3937 32.6069 53.8897 32.7561C54.395 32.9052 54.8863 32.9798 55.3635 32.9798C56.87 32.9798 58.0117 32.3506 58.7883 31.0923H59.2234C58.6807 32.1549 57.9742 32.9798 57.104 33.567C56.2337 34.1635 55.2606 34.4618 54.1844 34.4618ZM49.1875 30.0017C49.8894 30.0017 50.5678 29.8946 51.2228 29.6802C51.8872 29.4658 52.5235 29.1163 53.1317 28.6316C53.74 28.1469 54.2687 27.555 54.7178 26.8559C55.1763 26.1475 55.5366 25.262 55.7986 24.1995C56.07 23.1369 56.2057 21.9578 56.2057 20.6622C56.2057 18.9098 55.9904 17.3346 55.56 15.9364C55.1295 14.5383 54.5447 13.4011 53.8055 12.525C53.0756 11.6395 52.2381 10.9684 51.293 10.5117C50.3479 10.0456 49.3373 9.81259 48.2611 9.81259C47.7278 9.81259 47.1897 9.87783 46.647 10.0083C46.1136 10.1388 45.5709 10.3439 45.0188 10.6235C44.4667 10.9031 43.952 11.29 43.4748 11.784C43.0069 12.2687 42.5858 12.8372 42.2115 13.4897C41.8372 14.1328 41.5425 14.9251 41.3272 15.8665C41.1214 16.808 41.0184 17.8426 41.0184 18.9704C41.0184 20.3686 41.1775 21.6735 41.4957 22.8852C41.8232 24.0969 42.2583 25.1316 42.8011 25.9891C43.3438 26.8466 43.9661 27.583 44.6679 28.1981C45.379 28.8133 46.1183 29.2701 46.8856 29.5683C47.6529 29.8573 48.4202 30.0017 49.1875 30.0017Z" fill="#7C7C7C"></path></svg> 