<?xml version="1.0" encoding="UTF-8"?> <svg xmlns="http://www.w3.org/2000/svg" width="160" height="47" viewBox="0 0 160 47" fill="none"><path d="M2.01562 23.552V1.19382H4.18756L13.0669 13.0117L21.595 1.19382H23.6711V23.552H21.4034V4.99471L13.1947 16.2057H12.6837L4.28338 4.99471V23.552H2.01562Z" fill="#E5E5E5"></path><path d="M26.8973 23.552L36.703 1.12994H38.5555L48.3612 23.552H45.9976L43.2827 17.4195H31.8161L29.197 23.552H26.8973ZM37.5654 4.13233L32.7424 15.3753H42.4522L37.5654 4.13233Z" fill="#E5E5E5"></path><path d="M53.8145 23.552H51.5467V1.19382H59.9789C66.6544 1.19382 68.475 4.26009 68.475 7.70963C68.475 10.9995 66.0795 13.4269 62.6619 14.0019L70.104 23.552H67.3571L60.3303 14.4171H53.8145V23.552ZM59.8831 3.30188H53.8145V12.309H60.0747C63.7479 12.309 66.1434 10.4884 66.1434 7.70963C66.1434 5.15441 64.5783 3.30188 59.8831 3.30188Z" fill="#E5E5E5"></path><path d="M89.277 27.4259C88.6009 27.4259 87.9447 27.3066 87.3084 27.068C86.6721 26.8393 86.1004 26.556 85.5934 26.2179C85.0863 25.8898 84.5842 25.5617 84.0871 25.2336C83.5999 24.9056 83.0581 24.6222 82.4616 24.3836C81.865 24.1549 81.2585 24.0406 80.6421 24.0406C79.5982 24.0406 78.6586 24.3239 77.8235 24.8906C76.9982 25.4673 76.357 26.1633 75.8996 26.9785H75.3926C75.7505 26.1931 76.2973 25.4474 77.033 24.7415C77.7688 24.0356 78.6039 23.5087 79.5385 23.1607C77.4407 22.3653 75.7356 20.9634 74.4232 18.9551C73.1108 16.9467 72.4546 14.6202 72.4546 11.9755C72.4546 10.2257 72.7628 8.59515 73.3792 7.08391C74.0056 5.56274 74.8308 4.29509 75.8549 3.28097C76.8889 2.25691 78.077 1.45655 79.4192 0.879897C80.7614 0.293299 82.1533 0 83.595 0C85.0366 0 86.4186 0.293299 87.7409 0.879897C89.0732 1.46649 90.2315 2.26685 91.2158 3.28097C92.21 4.28515 93.0004 5.51303 93.587 6.96461C94.1836 8.41619 94.4818 9.96222 94.4818 11.6027C94.4818 13.1239 94.2233 14.5804 93.7063 15.9724C93.1993 17.3643 92.5083 18.5723 91.6334 19.5963C90.7684 20.6204 89.7592 21.4854 88.6059 22.1913C87.4625 22.8873 86.2546 23.3595 84.9819 23.6081C85.2802 23.7572 85.7127 23.9958 86.2794 24.3239C86.8461 24.652 87.3035 24.9056 87.6515 25.0845C87.9994 25.2734 88.4369 25.4474 88.9638 25.6065C89.5007 25.7656 90.0227 25.8451 90.5298 25.8451C92.1305 25.8451 93.3434 25.174 94.1687 23.8318H94.631C94.0543 24.9652 93.3037 25.8451 92.379 26.4715C91.4544 27.1078 90.4204 27.4259 89.277 27.4259ZM83.9678 22.6685C84.7135 22.6685 85.4343 22.5542 86.1303 22.3255C86.8362 22.0968 87.5123 21.724 88.1585 21.207C88.8048 20.69 89.3665 20.0587 89.8437 19.313C90.3309 18.5574 90.7137 17.6128 90.9921 16.4794C91.2804 15.346 91.4246 14.0883 91.4246 12.7063C91.4246 10.8371 91.1959 9.15689 90.7385 7.66554C90.2812 6.17419 89.6598 4.96123 88.8744 4.02665C88.0989 3.08212 87.209 2.36628 86.2048 1.8791C85.2007 1.38198 84.1269 1.13343 82.9835 1.13343C82.4168 1.13343 81.8451 1.20302 81.2685 1.34222C80.7018 1.48141 80.1251 1.70014 79.5385 1.99841C78.9519 2.29668 78.4051 2.70929 77.898 3.23623C77.4009 3.75323 76.9535 4.35971 76.5558 5.05568C76.1581 5.7417 75.8449 6.5868 75.6163 7.59097C75.3975 8.59515 75.2882 9.69875 75.2882 10.9018C75.2882 12.3931 75.4572 13.785 75.7952 15.0776C76.1432 16.3701 76.6055 17.4737 77.1822 18.3883C77.7588 19.303 78.42 20.0885 79.1657 20.7447C79.9213 21.4009 80.7067 21.8881 81.522 22.2062C82.3373 22.5144 83.1525 22.6685 83.9678 22.6685Z" fill="#7C7C7C"></path><path d="M117.227 1.19379V14.1615C117.227 21.0287 112.691 23.8075 108.219 23.8075C103.077 23.8075 98.6055 20.4857 98.6055 13.9379V1.19379H100.873V13.5866C100.873 19.0484 104.323 21.6994 108.219 21.6994C112.691 21.6994 114.959 18.6332 114.959 13.7463V1.19379H117.227Z" fill="#E5E5E5"></path><path d="M122.489 23.552V1.19379H138.427V3.30184H124.757V11.1272H137.533V13.2353H124.757V21.4439H138.746V23.552H122.489Z" fill="#E5E5E5"></path><path d="M143.496 23.552V1.19379H159.434V3.30184H145.763V11.1272H158.54V13.2353H145.763V21.4439H159.753V23.552H143.496Z" fill="#E5E5E5"></path><g opacity="0.5"><path d="M0.149414 34.3594V33.1683H2.14733V32.6304C2.14733 29.8256 3.8763 28.9803 5.37474 28.9803C6.41212 28.9803 7.33423 29.4798 7.77608 30.1522L6.98844 30.9014C6.66186 30.4596 6.12396 30.1714 5.43237 30.1714C4.27972 30.1714 3.39603 30.7862 3.39603 32.8033V33.1683H6.66186V34.3594H3.39603V43.1579H2.14733V34.3594H0.149414Z" fill="#E5E5E5"></path><path d="M13.6534 43.35C10.9639 43.35 9.5999 41.9668 9.5999 38.9315V33.1107H10.8486V38.6818C10.8486 40.5644 11.4826 42.1589 13.7878 42.1589C15.2863 42.1589 16.5734 41.2176 17.2074 39.6807V33.1107H18.4561V43.1579H17.2074V42.1973C17.2074 41.7555 17.2074 41.3329 17.265 40.9871H17.2074C16.6118 42.5239 15.1518 43.35 13.6534 43.35Z" fill="#E5E5E5"></path><path d="M22.8939 43.1579V33.1683H24.1426V34.1288C24.5268 33.2836 25.545 32.9378 26.371 32.9378C27.2739 32.9378 27.9655 33.3028 28.4074 33.8599L27.5621 34.6859C27.2931 34.3594 26.9474 34.1288 26.2366 34.1288C25.2376 34.1288 24.3731 34.9741 24.1426 36.0883V43.1579H22.8939Z" fill="#E5E5E5"></path><path d="M36.392 32.9378C39.0431 32.9378 40.5031 34.3017 40.5031 37.4523V43.1579H39.2544V37.6444C39.2544 35.243 38.1786 34.1288 36.0078 34.1288C34.6822 34.1288 33.3567 35.0509 32.7612 36.3573V43.1579H31.5125V33.1683H32.7612V34.0904C32.7612 34.5323 32.7612 34.9549 32.7035 35.3007H32.7612C33.3183 33.7638 34.8551 32.9378 36.392 32.9378Z" fill="#E5E5E5"></path><path d="M44.9949 43.1579V33.1683H46.2436V43.1579H44.9949ZM44.7836 29.9793C44.7836 29.5182 45.1871 29.1725 45.6481 29.1725C46.0707 29.1725 46.4742 29.5182 46.4742 29.9793C46.4742 30.4788 46.0707 30.8438 45.6481 30.8438C45.1678 30.8438 44.7836 30.4788 44.7836 29.9793Z" fill="#E5E5E5"></path><path d="M49.6771 34.3594V33.1683H51.675V30.9206H52.9237V33.1683H56.4969V34.3594H52.9237V39.1428C52.9237 41.3713 53.5385 42.1013 54.9024 42.1013C55.6709 42.1013 56.2472 41.6402 56.5546 41.256L57.323 42.0052C56.8235 42.6968 55.8246 43.2924 54.6719 43.2924C52.674 43.2924 51.675 41.9476 51.675 39.431V34.3594H49.6771Z" fill="#E5E5E5"></path><path d="M64.2879 43.35C61.5984 43.35 60.2345 41.9668 60.2345 38.9315V33.1107H61.4832V38.6818C61.4832 40.5644 62.1171 42.1589 64.4224 42.1589C65.9209 42.1589 67.208 41.2176 67.8419 39.6807V33.1107H69.0906V43.1579H67.8419V42.1973C67.8419 41.7555 67.8419 41.3329 67.8996 40.9871H67.8419C67.2464 42.5239 65.7864 43.35 64.2879 43.35Z" fill="#E5E5E5"></path><path d="M73.5285 43.1579V33.1683H74.7772V34.1288C75.1614 33.2836 76.1795 32.9378 77.0056 32.9378C77.9085 32.9378 78.6001 33.3028 79.0419 33.8599L78.1967 34.6859C77.9277 34.3594 77.5819 34.1288 76.8711 34.1288C75.8722 34.1288 75.0077 34.9741 74.7772 36.0883V43.1579H73.5285Z" fill="#E5E5E5"></path><path d="M89.5906 40.5068L90.4359 41.256C89.533 42.6584 88.0729 43.35 86.4592 43.35C83.2895 43.35 81.1571 41.3136 81.1571 38.1439C81.1571 35.2046 82.9245 32.9185 86.2095 32.9185C88.8414 32.9185 90.8009 34.7051 90.8009 37.4523C90.8009 37.7981 90.7624 38.1823 90.724 38.5281H82.4826C82.521 40.8334 84.2308 42.1589 86.5169 42.1589C87.804 42.1589 88.9951 41.4097 89.5906 40.5068ZM86.1134 34.0904C83.981 34.0904 82.6747 35.4928 82.4634 37.3754H89.4561C89.3985 35.3199 88.1306 34.0904 86.1134 34.0904Z" fill="#E5E5E5"></path><path d="M108.65 40.5068C108.65 38.2207 101.984 39.1428 101.984 35.7233C101.984 33.9944 103.463 32.9185 105.826 32.9185C107.401 32.9185 108.996 33.6486 109.687 34.6283L108.784 35.4352C108.266 34.7051 106.979 34.1096 105.73 34.1096C104.481 34.1096 103.309 34.4554 103.309 35.6273C103.309 37.8173 109.975 36.9912 109.975 40.4876C109.975 42.4663 108.17 43.35 106.037 43.35C104.116 43.35 102.33 42.4471 101.619 41.0063L102.618 40.2763C103.232 41.4481 104.673 42.1589 106.114 42.1589C107.19 42.1589 108.65 41.7555 108.65 40.5068Z" fill="#E5E5E5"></path><path d="M118.487 34.1096C116.701 34.1096 115.471 35.3391 115.048 36.4917V40.3723C115.759 41.6786 117.027 42.1589 118.314 42.1589C120.447 42.1589 122.003 40.4492 122.003 38.067C122.003 35.7041 120.658 34.1096 118.487 34.1096ZM118.602 32.9185C121.542 32.9185 123.328 35.0125 123.328 37.971C123.328 41.0447 121.369 43.35 118.545 43.35C117.123 43.35 115.74 42.6584 115.048 41.5826V47H113.8V33.1683H115.048V34.0712C115.048 34.513 115.048 34.9357 114.991 35.2815H115.048C115.606 33.7446 117.085 32.9185 118.602 32.9185Z" fill="#E5E5E5"></path><path d="M130.392 42.1397C132.274 42.1397 133.446 40.7757 133.811 39.9113V38.9123C133.024 38.5473 131.967 38.2976 130.795 38.2976C128.912 38.2976 127.741 38.8355 127.741 40.1994C127.741 41.4097 128.816 42.1397 130.392 42.1397ZM130.257 37.1833C131.717 37.1833 133.043 37.6636 133.811 38.2591V37.5868C133.811 35.5312 133.216 34.1096 130.795 34.1096C129.642 34.1096 128.643 34.5899 127.76 35.2815L127.087 34.3209C128.01 33.4757 129.585 32.9185 130.949 32.9185C133.677 32.9185 135.06 34.3978 135.06 36.9528V43.1579H133.811V42.351L133.888 41.0831L133.811 41.0639C133.273 42.1013 132.178 43.2924 130.046 43.2924C127.856 43.2924 126.434 42.1013 126.434 40.2763C126.434 38.0286 128.221 37.1833 130.257 37.1833Z" fill="#E5E5E5"></path><path d="M147.167 40.5644L148.031 41.256C147.301 42.62 145.553 43.35 144.054 43.35C140.885 43.35 138.733 41.3136 138.733 38.1439C138.733 35.2046 140.808 32.9185 143.978 32.9185C145.591 32.9185 147.167 33.6678 147.858 34.8204L146.878 35.512C146.148 34.5515 145.265 34.1096 143.978 34.1096C141.73 34.1096 140.059 35.8002 140.059 38.1439C140.059 40.5836 141.73 42.1589 144.15 42.1589C145.418 42.1589 146.513 41.5058 147.167 40.5644Z" fill="#E5E5E5"></path><path d="M158.693 40.5068L159.538 41.256C158.635 42.6584 157.175 43.35 155.562 43.35C152.392 43.35 150.259 41.3136 150.259 38.1439C150.259 35.2046 152.027 32.9185 155.312 32.9185C157.944 32.9185 159.903 34.7051 159.903 37.4523C159.903 37.7981 159.865 38.1823 159.826 38.5281H151.585C151.623 40.8334 153.333 42.1589 155.619 42.1589C156.906 42.1589 158.097 41.4097 158.693 40.5068ZM155.216 34.0904C153.083 34.0904 151.777 35.4928 151.566 37.3754H158.559C158.501 35.3199 157.233 34.0904 155.216 34.0904Z" fill="#E5E5E5"></path></g></svg> 